Coordinates
version=1
nRows=7
nColumns=60
inDegrees=yes

Units are S.I. units (second, meters, Newtons, ...)
If the header above contains a line with 'inDegrees', this indicates whether rotational values are in degrees (yes) or radians (no).

endheader
time	pelvis_tilt	pelvis_list	pelvis_rotation	pelvis_tx	pelvis_ty	pelvis_tz	hip_flexion_r	hip_adduction_r	hip_rotation_r	knee_angle_r_beta	knee_angle_r	ankle_angle_r	subtalar_angle_r	mtp_angle_r	hip_flexion_l	hip_adduction_l	hip_rotation_l	knee_angle_l_beta	knee_angle_l	ankle_angle_l	subtalar_angle_l	mtp_angle_l	L5_S1_Flex_Ext	L5_S1_Lat_Bending	L5_S1_axial_rotation	L4_L5_Flex_Ext	L4_L5_Lat_Bending	L4_L5_axial_rotation	L3_L4_Flex_Ext	L3_L4_Lat_Bending	L3_L4_axial_rotation	L2_L3_Flex_Ext	L2_L3_Lat_Bending	L2_L3_axial_rotation	L1_L2_Flex_Ext	L1_L2_Lat_Bending	L1_L2_axial_rotation	L1_T12_Flex_Ext	L1_T12_Lat_Bending	L1_T12_axial_rotation	Abs_r3	Abs_r2	Abs_r1	Abs_t1	Abs_t2	arm_flex_r	arm_add_r	arm_rot_r	elbow_flex_r	pro_sup_r	wrist_flex_r	wrist_dev_r	arm_flex_l	arm_add_l	arm_rot_l	elbow_flex_l	pro_sup_l	wrist_flex_l	wrist_dev_l
     20.81000000	      0.75578087	      5.32923033	     93.43586542	      0.40548706	      0.94034445	      0.27966864	      2.61436094	     -3.92812989	     -0.28052548	      0.21415430	    -12.27013741	      6.76304442	      0.00000000	      0.00000000	      3.32770167	     -6.57980783	      0.84070131	      0.18199499	    -10.42754477	      6.38394988	      0.00000000	      0.00000000	     -6.04629027	      0.14421745	     -0.25158914	    -11.22856567	      0.19180921	     -0.26731346	     -9.93345029	      0.35065030	     -0.26731346	     -6.91030515	      0.35065030	     -0.22014049	     -5.61458515	      0.29408822	     -0.20441617	     -3.45485026	      0.22339283	     -0.18869185	    -43.18804680	      1.63141662	     -1.39926329	      0.00000000	      0.00000000	     43.86430836	    -25.09457011	      5.83016689	     83.73891084	     68.54792250	      4.01702127	     22.91897303	     46.83229239	    -24.66654041	     13.50521126	     77.21371403	     58.14199612	      5.43746723	     17.44866111
     20.82000000	      0.75125448	      5.75513557	     93.33167947	      0.40530204	      0.94073275	      0.27727249	      1.99201562	     -3.91644961	     -0.25554795	      0.21426179	    -12.27629639	      6.99721184	      0.00000000	      0.00000000	      2.68457971	     -6.59592677	      0.65010392	      0.18237488	    -10.44931066	      6.72953618	      0.00000000	      0.00000000	     -6.04471034	      0.13372652	     -0.24852756	    -11.22563158	      0.17785627	     -0.26406054	     -9.93085462	      0.32514266	     -0.26406054	     -6.90849945	      0.32514266	     -0.21746162	     -5.61311802	      0.27269512	     -0.20192865	     -3.45394749	      0.20714238	     -0.18639567	    -43.17676151	      1.51274113	     -1.38223575	      0.00000000	      0.00000000	     42.08828088	    -25.34903004	      5.45335945	     85.35387546	     68.69701080	      3.96618847	     22.91438154	     44.64417736	    -24.59254873	     12.28003962	     79.04933357	     58.28984659	      5.27058059	     17.51952783
     20.83000000	      0.77755451	      6.12747733	     93.22033415	      0.40510101	      0.94110056	      0.27491634	      1.43595658	     -3.88279499	     -0.27025403	      0.21404846	    -12.26407334	      7.13569973	      0.00000000	      0.00000000	      2.12330055	     -6.63969207	      0.42098164	      0.18351268	    -10.51450207	      7.06068000	      0.00000000	      0.00000000	     -6.03124062	      0.12565515	     -0.24891473	    -11.20061695	      0.16712136	     -0.26447190	     -9.90872521	      0.30551794	     -0.26447190	     -6.89310490	      0.30551794	     -0.21780039	     -5.60061004	      0.25623599	     -0.20224322	     -3.44625089	      0.19463983	     -0.18668605	    -43.08054861	      1.42143624	     -1.38438907	      0.00000000	      0.00000000	     40.34204129	    -25.51473271	      5.05480124	     86.70984993	     68.95767659	      3.90788950	     22.91553684	     42.45611070	    -24.44648058	     11.02059970	     80.69039787	     58.61897465	      5.07498126	     17.56169248
     20.84000000	      0.82072313	      6.44635615	     93.05462327	      0.40492193	      0.94146075	      0.27265715	      0.95163780	     -3.84183183	     -0.31418590	      0.21338041	    -12.22579673	      7.25175356	      0.00000000	      0.00000000	      1.63843995	     -6.68594937	      0.18032023	      0.18540708	    -10.62304316	      7.38050509	      0.00000000	      0.00000000	     -6.01486018	      0.12021962	     -0.23853716	    -11.17019683	      0.15989209	     -0.25344573	     -9.88181378	      0.29230198	     -0.25344573	     -6.87438369	      0.29230198	     -0.20872001	     -5.58539916	      0.24515184	     -0.19381144	     -3.43689110	      0.18622019	     -0.17890287	    -42.96354474	      1.35994835	     -1.32667212	      0.00000000	      0.00000000	     38.63129506	    -25.68199982	      4.66863368	     88.06799330	     69.27972739	      3.83387462	     22.90404153	     40.22173665	    -24.29307314	      9.78861424	     82.33325420	     59.11279510	      4.85552711	     17.57650153
     20.85000000	      0.86488251	      6.76860020	     92.95843909	      0.40469408	      0.94184810	      0.27052956	      0.45829393	     -3.80184613	     -0.34134238	      0.21331294	    -12.22193124	      7.31989487	      0.00000000	      0.00000000	      1.21186204	     -6.74329432	     -0.01373427	      0.18815925	    -10.78073118	      7.63004819	      0.00000000	      0.00000000	     -5.99447020	      0.11367656	     -0.22754142	    -11.13233061	      0.15118982	     -0.24176276	     -9.84831509	      0.27639318	     -0.24176276	     -6.85107999	      0.27639318	     -0.19909874	     -5.56646503	      0.23180924	     -0.18487740	     -3.42524027	      0.17608499	     -0.17065606	    -42.81790120	      1.28593195	     -1.26551711	      0.00000000	      0.00000000	     36.97968355	    -25.88474587	      4.35106367	     89.10178823	     69.62208683	      3.75314984	     22.90096240	     38.16149997	    -24.07665940	      8.78803472	     83.83523379	     59.63424482	      4.65944104	     17.57793785
     20.86000000	      0.92222315	      7.07104245	     92.82336800	      0.40443522	      0.94226738	      0.26856209	      0.02356060	     -3.75455313	     -0.27584627	      0.21341067	    -12.22753064	      7.33504243	      0.00000000	      0.00000000	      0.82569921	     -6.80240035	     -0.19080217	      0.19199548	    -11.00053061	      7.86994222	      0.00000000	      0.00000000	     -5.99119980	      0.11358668	     -0.23970198	    -11.12625716	      0.15107028	     -0.25468335	     -9.84294216	      0.27617465	     -0.25468335	     -6.84734226	      0.27617465	     -0.20973923	     -5.56342814	      0.23162596	     -0.19475786	     -3.42337157	      0.17594577	     -0.17977648	    -42.79454109	      1.28491524	     -1.33315049	      0.00000000	      0.00000000	     35.37974254	    -25.95739330	      3.99222126	     90.55557524	     69.61664364	      3.65619287	     22.85972060	     35.92924041	    -23.97567097	      7.49036374	     85.47743607	     60.02279813	      4.40330854	     17.57643925
     20.87000000	      0.96421387	      7.38008437	     92.70960643	      0.40427348	      0.94270928	      0.26667450	     -0.43530300	     -3.71434065	     -0.30955942	      0.21304608	    -12.20664131	      7.36453310	      0.00000000	      0.00000000	      0.43394782	     -6.86183455	     -0.33972240	      0.19520778	    -11.18458179	      8.06906567	      0.00000000	      0.00000000	     -5.97669664	      0.10698885	     -0.23979161	    -11.09932332	      0.14229516	     -0.25477859	     -9.81911490	      0.26013268	     -0.25477859	     -6.83076659	      0.26013268	     -0.20981766	     -5.54996050	      0.21817165	     -0.19483069	     -3.41508446	      0.16572572	     -0.17984371	    -42.69094640	      1.21027922	     -1.33364902	      0.00000000	      0.00000000	     33.87486694	    -26.06731406	      3.78073031	     91.49840064	     69.64332412	      3.55591487	     22.84560967	     33.88601496	    -23.84189029	      6.52409217	     86.84555287	     60.39333868	      4.17598593	     17.61498456
